<svg width="100" height="31" viewBox="0 0 100 31" fill="none" xmlns="http://www.w3.org/2000/svg">
<rect x="2" y="2" width="96" height="27" rx="3" stroke="#757575" stroke-width="4" stroke-linecap="round"/>
<path d="M17.625 13.4205C17.5644 12.8826 17.3144 12.4659 16.875 12.1705C16.4356 11.8712 15.8826 11.7216 15.2159 11.7216C14.7386 11.7216 14.3258 11.7973 13.9773 11.9489C13.6288 12.0966 13.358 12.3011 13.1648 12.5625C12.9754 12.8201 12.8807 13.1136 12.8807 13.4432C12.8807 13.7197 12.9451 13.9583 13.0739 14.1591C13.2064 14.3598 13.3788 14.5284 13.5909 14.6648C13.8068 14.7973 14.0379 14.9091 14.2841 15C14.5303 15.0871 14.767 15.1591 14.9943 15.2159L16.1307 15.5114C16.5019 15.6023 16.8826 15.7254 17.2727 15.8807C17.6629 16.036 18.0246 16.2405 18.358 16.4943C18.6913 16.7481 18.9602 17.0625 19.1648 17.4375C19.3731 17.8125 19.4773 18.2614 19.4773 18.7841C19.4773 19.4432 19.3068 20.0284 18.9659 20.5398C18.6288 21.0511 18.1383 21.4545 17.4943 21.75C16.8542 22.0455 16.0795 22.1932 15.1705 22.1932C14.2992 22.1932 13.5455 22.0549 12.9091 21.7784C12.2727 21.5019 11.7746 21.1098 11.4148 20.6023C11.0549 20.0909 10.8561 19.4848 10.8182 18.7841H12.5795C12.6136 19.2045 12.75 19.5549 12.9886 19.8352C13.2311 20.1117 13.5398 20.3182 13.9148 20.4545C14.2936 20.5871 14.7083 20.6534 15.1591 20.6534C15.6553 20.6534 16.0966 20.5758 16.483 20.4205C16.8731 20.2614 17.1799 20.0417 17.4034 19.7614C17.6269 19.4773 17.7386 19.1458 17.7386 18.767C17.7386 18.4223 17.6402 18.1402 17.4432 17.9205C17.25 17.7008 16.9867 17.5189 16.6534 17.375C16.3239 17.2311 15.9508 17.1042 15.5341 16.9943L14.1591 16.6193C13.2273 16.3655 12.4886 15.9924 11.9432 15.5C11.4015 15.0076 11.1307 14.3561 11.1307 13.5455C11.1307 12.875 11.3125 12.2898 11.6761 11.7898C12.0398 11.2898 12.5322 10.9015 13.1534 10.625C13.7746 10.3447 14.4754 10.2045 15.2557 10.2045C16.0436 10.2045 16.7386 10.3428 17.3409 10.6193C17.947 10.8958 18.4242 11.2765 18.7727 11.7614C19.1212 12.2424 19.303 12.7955 19.3182 13.4205H17.625ZM22.3368 25.2727C22.083 25.2727 21.8519 25.2519 21.6436 25.2102C21.4353 25.1723 21.28 25.1307 21.1777 25.0852L21.5868 23.6932C21.8974 23.7765 22.1739 23.8125 22.4163 23.8011C22.6588 23.7898 22.8728 23.6989 23.0584 23.5284C23.2478 23.358 23.4144 23.0795 23.5584 22.6932L23.7686 22.1136L20.5754 13.2727H22.3936L24.6038 20.0455H24.6947L26.905 13.2727H28.7288L25.1322 23.1648C24.9656 23.6193 24.7535 24.0038 24.4959 24.3182C24.2383 24.6364 23.9315 24.875 23.5754 25.0341C23.2194 25.1932 22.8065 25.2727 22.3368 25.2727ZM31.8483 16.8182V22H30.1494V13.2727H31.7801V14.6932H31.8881C32.0888 14.2311 32.4032 13.8598 32.8312 13.5795C33.2631 13.2992 33.8066 13.1591 34.4619 13.1591C35.0566 13.1591 35.5775 13.2841 36.0244 13.5341C36.4714 13.7803 36.818 14.1477 37.0642 14.6364C37.3104 15.125 37.4335 15.7292 37.4335 16.4489V22H35.7346V16.6534C35.7346 16.0208 35.5699 15.5265 35.2403 15.1705C34.9108 14.8106 34.4581 14.6307 33.8824 14.6307C33.4884 14.6307 33.1381 14.7159 32.8312 14.8864C32.5282 15.0568 32.2877 15.3068 32.1096 15.6364C31.9354 15.9621 31.8483 16.3561 31.8483 16.8182ZM43.2121 22.1761C42.3674 22.1761 41.6401 21.9848 41.0302 21.6023C40.4242 21.2159 39.9583 20.6837 39.6325 20.0057C39.3068 19.3277 39.1439 18.5511 39.1439 17.6761C39.1439 16.7898 39.3105 16.0076 39.6439 15.3295C39.9772 14.6477 40.4469 14.1155 41.053 13.733C41.659 13.3504 42.373 13.1591 43.195 13.1591C43.8579 13.1591 44.4488 13.2822 44.9677 13.5284C45.4867 13.7708 45.9052 14.1117 46.2234 14.5511C46.5454 14.9905 46.7367 15.5038 46.7973 16.0909H45.1439C45.053 15.6818 44.8446 15.3295 44.5189 15.0341C44.1969 14.7386 43.7651 14.5909 43.2234 14.5909C42.7499 14.5909 42.3352 14.7159 41.9791 14.9659C41.6268 15.2121 41.3522 15.5644 41.1552 16.0227C40.9583 16.4773 40.8598 17.0152 40.8598 17.6364C40.8598 18.2727 40.9564 18.822 41.1496 19.2841C41.3427 19.7462 41.6155 20.1042 41.9677 20.358C42.3238 20.6117 42.7424 20.7386 43.2234 20.7386C43.5454 20.7386 43.8371 20.6799 44.0984 20.5625C44.3636 20.4413 44.5852 20.2689 44.7632 20.0455C44.945 19.822 45.0719 19.553 45.1439 19.2386H46.7973C46.7367 19.803 46.553 20.3068 46.2461 20.75C45.9393 21.1932 45.5283 21.5417 45.0132 21.7955C44.5018 22.0492 43.9015 22.1761 43.2121 22.1761Z" fill="black" fill-opacity="0.8"/>
</svg>
